<mxfile host="65bd71144e">
    <diagram id="GzSSaLns1zzax5EXb5d2" name="Page-1">
        <mxGraphModel dx="442" dy="543" grid="1" gridSize="10" guides="1" tooltips="1" connect="1" arrows="1" fold="1" page="1" pageScale="1" pageWidth="850" pageHeight="1100" math="0" shadow="0">
            <root>
                <mxCell id="0"/>
                <mxCell id="1" parent="0"/>
                <mxCell id="2" value="MIDI Bus&lt;br&gt;&lt;br&gt;&lt;hr&gt;+ list Instruments&lt;br&gt;+ int play_state&lt;br&gt;+ bool rec&lt;br&gt;&lt;hr&gt;+ transport() -&amp;gt; play_state&lt;br&gt;+&amp;nbsp;" style="whiteSpace=wrap;html=1;" vertex="1" parent="1">
                    <mxGeometry x="100" y="90" width="270" height="310" as="geometry"/>
                </mxCell>
            </root>
        </mxGraphModel>
    </diagram>
</mxfile>